<svg width="19" height="19" viewBox="0 0 19 19" fill="none" xmlns="http://www.w3.org/2000/svg">
<circle cx="9.5" cy="9.5" r="9.5" fill="black"/>
<path d="M13.9996 6.6563C13.9996 6.54167 13.9722 6.4358 13.9276 6.34174L10.3457 9.50004L13.9235 12.6675C13.9704 12.5717 13.9996 12.4619 13.9996 12.3438V6.6563Z" fill="white"/>
<path d="M9.14462 9.3823C9.35801 9.57217 9.64528 9.57261 9.85942 9.38274L13.6438 6.04594C13.5805 6.0175 13.5122 6 13.4402 6H5.56459C5.49296 6 5.42471 6.01706 5.36133 6.04594L9.14462 9.3823Z" fill="white"/>
<path d="M5.07201 6.34119C5.02775 6.43525 5 6.54156 5 6.65619V12.3437C5 12.4618 5.02888 12.5712 5.07613 12.667L8.6539 9.49992L5.07201 6.34119Z" fill="white"/>
<path d="M10.0326 9.77075C9.87023 9.89675 9.68609 9.96369 9.50121 9.96369C9.31632 9.96369 9.13255 9.89719 8.96941 9.77075L5.36914 12.9575C5.43027 12.9833 5.49515 12.9999 5.56341 12.9999H13.439C13.5073 12.9999 13.5718 12.9837 13.6321 12.9575L10.0326 9.77075Z" fill="white"/>
</svg>
