<svg width="19" height="19" viewBox="0 0 19 19" fill="none" xmlns="http://www.w3.org/2000/svg">
<path fill-rule="evenodd" clip-rule="evenodd" d="M9.5 19C4.25329 19 0 14.7467 0 9.5C0 4.25329 4.25329 0 9.5 0C14.7467 0 19 4.25329 19 9.5C19 14.7467 14.7467 19 9.5 19ZM9.91079 7.12938C9.05994 7.48327 7.35946 8.21575 4.80933 9.3268C4.39522 9.49147 4.1783 9.65257 4.15855 9.8101C4.12518 10.0763 4.45856 10.1811 4.91253 10.3239C4.97428 10.3433 5.03827 10.3634 5.10386 10.3848C5.55051 10.5299 6.15132 10.6998 6.46366 10.7065C6.74698 10.7127 7.0632 10.5959 7.41231 10.3561C9.79498 8.74776 11.0249 7.93481 11.1021 7.91729C11.1566 7.90492 11.2321 7.88938 11.2833 7.93484C11.3344 7.9803 11.3294 8.0664 11.324 8.0895C11.2909 8.23029 9.9823 9.44691 9.30508 10.0765C9.09396 10.2728 8.9442 10.412 8.91359 10.4438C8.84501 10.515 8.77512 10.5824 8.70794 10.6472C8.293 11.0472 7.98184 11.3472 8.72517 11.837C9.08239 12.0724 9.36824 12.2671 9.65341 12.4613C9.96484 12.6734 10.2755 12.8849 10.6774 13.1483C10.7798 13.2155 10.8776 13.2852 10.9728 13.3531C11.3352 13.6115 11.6609 13.8436 12.0631 13.8066C12.2969 13.7851 12.5383 13.5653 12.661 12.9097C12.9507 11.3605 13.5204 8.00381 13.652 6.62059C13.6636 6.4994 13.6491 6.3443 13.6374 6.27622C13.6257 6.20814 13.6014 6.11113 13.5129 6.03932C13.4081 5.95428 13.2463 5.93634 13.1739 5.93756C12.8449 5.94341 12.3401 6.11894 9.91079 7.12938Z" fill="black"/>
</svg>
