<svg width="19" height="19" viewBox="0 0 19 19" fill="none" xmlns="http://www.w3.org/2000/svg">
<path fill-rule="evenodd" clip-rule="evenodd" d="M7.48125 12.8844C8.075 13.2406 8.7875 13.4187 9.5 13.4187C11.6969 13.4187 13.4188 11.6375 13.4188 9.55937C13.4188 8.49063 13.0625 7.54062 12.2906 6.76875C11.5188 6.05625 10.5688 5.64062 9.5 5.64062C7.3625 5.64062 5.58125 7.42188 5.58125 9.55937C5.58125 10.2719 5.75937 10.9844 6.175 11.6375L6.29375 11.8156L5.87812 13.2406L7.3625 12.825L7.48125 12.8844ZM10.8063 10.0938C10.925 10.0938 11.5188 10.3906 11.6375 10.45C11.656 10.4592 11.6745 10.467 11.6928 10.4748C11.7918 10.5166 11.8843 10.5556 11.9344 10.8062C11.9938 10.8062 11.9937 11.0437 11.875 11.3406C11.8156 11.5781 11.3406 11.875 11.1031 11.875C11.0629 11.875 11.0244 11.8784 10.9832 11.882C10.7814 11.8999 10.5165 11.9233 9.67812 11.5781C8.63759 11.1619 7.91618 10.1531 7.7136 9.86978C7.68498 9.82976 7.66672 9.80422 7.65937 9.79688C7.64926 9.77666 7.62882 9.74439 7.60187 9.70183C7.47051 9.49443 7.18438 9.04266 7.18438 8.55C7.18438 7.95625 7.48124 7.65938 7.59999 7.54062C7.71874 7.42188 7.83749 7.42188 7.89687 7.42188H8.13438C8.19376 7.42188 8.3125 7.42188 8.37188 7.6C8.49063 7.8375 8.72813 8.43125 8.72813 8.49063C8.72813 8.51042 8.73473 8.53021 8.74132 8.55C8.75452 8.58958 8.76771 8.62917 8.72813 8.66875C8.69844 8.69843 8.6836 8.72812 8.66875 8.75781C8.65391 8.7875 8.63906 8.81719 8.60938 8.84688L8.43126 9.025C8.37188 9.08438 8.3125 9.14375 8.37188 9.2625C8.43125 9.38125 8.66876 9.79688 9.02501 10.0938C9.42585 10.4445 9.74212 10.5838 9.90247 10.6544C9.93213 10.6675 9.95646 10.6782 9.97499 10.6875C10.0937 10.6875 10.1531 10.6875 10.2125 10.6281C10.2422 10.5688 10.3164 10.4797 10.3906 10.3906C10.4648 10.3016 10.5391 10.2125 10.5687 10.1531C10.6281 10.0344 10.6875 10.0344 10.8063 10.0938Z" fill="black"/>
<path fill-rule="evenodd" clip-rule="evenodd" d="M0 9.5C0 4.2533 4.2533 0 9.5 0C14.7467 0 19 4.2533 19 9.5C19 14.7467 14.7467 19 9.5 19C4.2533 19 0 14.7467 0 9.5ZM9.5 4.75C10.7469 4.75 11.9344 5.225 12.825 6.11563C13.7156 7.00625 14.25 8.19375 14.25 9.44063C14.25 12.0531 12.1125 14.1906 9.5 14.1906C8.72812 14.1906 7.95626 13.9531 7.24376 13.5969L4.75 14.25L5.40313 11.875C4.98751 11.1625 4.75 10.3313 4.75 9.5C4.75 6.8875 6.8875 4.75 9.5 4.75Z" fill="black"/>
</svg>
