<svg width="198" height="44" viewBox="0 0 198 44" fill="none" xmlns="http://www.w3.org/2000/svg">
<path fill-rule="evenodd" clip-rule="evenodd" d="M23.1314 26.8291H14.4571V16.7682H7.7612V26.8291C7.7612 26.8291 1.21744 26.8291 0 26.8291C0 29.8779 0 32.9266 1.21744 35.823C2.43489 38.5668 4.86978 41.0059 8.06556 42.2254C11.2614 43.4449 15.0659 43.4449 18.8704 43.4449C22.6749 43.4449 26.4794 43.4449 29.6752 42.2254C32.871 41.0059 35.3059 38.5668 36.5233 35.823C37.7408 33.0791 37.7408 30.0303 37.7408 26.8291C36.5233 26.8291 29.9796 26.8291 29.9796 26.8291V16.7682H23.2836C23.1314 16.7682 23.1314 24.2377 23.1314 26.8291ZM5.78286 0C8.67429 0 13.6962 0 18.7182 0C23.7402 0 28.7621 0 31.6535 0C34.545 0 35.3059 0 35.9146 0.304876C36.5233 0.609753 36.9799 1.06707 37.2842 1.52438C37.5886 2.13413 37.5886 2.74389 37.5886 3.35364C37.5886 5.64021 37.5886 10.0609 37.5886 10.0609H23.4358L18.7182 14.7865L14.1528 10.0609H0C0 10.0609 0 5.64021 0 3.35364C0 2.74389 0 2.13413 0.304361 1.52438C0.456541 0.914629 0.913083 0.457314 1.5218 0.304876C2.13053 0 2.89143 0 5.78286 0Z" fill="#14C1DE"/>
<path fill-rule="evenodd" clip-rule="evenodd" d="M162.985 13.872C162.985 15.5488 162.985 17.2256 162.985 18.9024C164.202 18.9024 165.419 18.9024 166.333 18.9024C167.55 18.9024 168.159 18.9024 168.767 18.75C169.376 18.5976 169.681 18.1403 169.833 17.5305C169.985 16.9207 169.985 16.0061 169.833 15.3964C169.681 14.7866 169.224 14.3293 168.615 14.1769C168.007 14.0244 167.398 14.0244 166.333 14.0244C165.419 13.872 164.202 13.872 162.985 13.872ZM183.985 13.872C183.985 16.9208 183.985 19.9695 183.985 23.1707C185.203 23.1707 186.42 23.1707 187.486 23.1707C188.551 23.1707 189.464 23.1707 190.377 22.8658C191.138 22.561 191.747 21.9512 192.051 21.189C192.355 20.4268 192.355 19.5122 192.355 18.4451C192.355 17.5305 192.355 16.4634 192.051 15.7012C191.747 14.9391 191.138 14.3293 190.377 14.0244C189.616 13.7195 188.703 13.7195 187.486 13.7195C186.42 13.872 185.203 13.872 183.985 13.872ZM100.286 13.872C100.286 16.9208 100.286 19.9695 100.286 23.1707C101.504 23.1707 102.721 23.1707 103.786 23.1707C104.852 23.1707 105.765 23.1707 106.678 22.8658C107.439 22.561 108.047 21.9512 108.352 21.189C108.656 20.4268 108.656 19.5122 108.656 18.4451C108.656 17.5305 108.656 16.4634 108.352 15.7012C108.047 14.9391 107.439 14.3293 106.678 14.0244C105.917 13.7195 105.004 13.7195 103.786 13.7195C102.721 13.872 101.504 13.872 100.286 13.872ZM140.005 15.7012C139.701 16.4634 139.701 17.5305 139.701 18.5976C139.701 19.6646 139.701 20.7317 140.005 21.4939C140.31 22.2561 140.918 22.8658 141.679 23.1707C142.44 23.4756 143.505 23.4756 144.571 23.4756C145.636 23.4756 146.701 23.4756 147.462 23.1707C148.223 22.8658 148.832 22.2561 149.136 21.4939C149.441 20.7317 149.441 19.6646 149.441 18.5976C149.441 17.5305 149.441 16.4634 149.136 15.7012C148.832 14.9391 148.223 14.3293 147.462 14.0244C146.397 13.7195 145.332 13.7195 144.266 13.7195C143.201 13.7195 142.288 13.7195 141.527 14.0244C140.766 14.3293 140.31 14.7866 140.005 15.7012ZM72.5894 26.8292H67.5674V15.5488L61.9368 21.189L56.3061 15.5488V26.8292H51.2841V10.061H56.3061L61.9368 15.7012L67.5674 10.061H72.5894V26.8292ZM77.0026 26.8292C77.0026 21.189 77.0026 15.7012 77.0026 10.061H90.8511V13.872H82.0246V16.6159H90.8511V20.4268H82.0246V23.1707H90.8511V26.9817H77.0026V26.8292ZM117.33 26.8292V21.3415V17.5305V13.872V10.061H131.179V13.872H122.352V17.6829H131.179V21.4939H122.352V26.9817H117.33V26.8292ZM138.179 26.2195C136.657 25.6097 135.592 24.3902 134.983 22.8658C134.375 21.4939 134.375 19.9695 134.375 18.4451C134.375 16.9208 134.375 15.3964 134.983 13.872C135.592 12.5 136.657 11.2805 138.179 10.6708C139.701 10.061 141.527 10.061 142.897 10.061C144.114 10.061 144.723 10.061 145.94 10.061C147.158 10.061 149.136 10.061 150.658 10.6708C152.18 11.2805 153.245 12.5 153.854 13.872C154.462 15.2439 154.462 16.7683 154.462 18.4451C154.462 19.9695 154.462 21.4939 153.854 23.0183C153.245 24.3902 152.18 25.6097 150.658 26.2195C149.136 26.8292 147.31 26.8292 145.332 26.8292C144.723 26.8292 144.114 26.8292 143.506 26.8292C141.679 26.8292 139.701 26.8292 138.179 26.2195ZM157.963 26.8292C157.963 21.189 157.963 15.7012 157.963 10.061C159.637 10.061 161.311 10.061 162.985 10.061C164.202 10.061 165.419 10.061 166.941 10.061C168.463 10.061 170.137 10.061 171.507 10.5183C172.876 10.9757 174.094 11.8903 174.703 13.5671C175.311 15.2439 175.311 17.6829 174.703 19.3598C174.246 20.5793 173.485 21.3415 172.572 21.9512L175.463 26.9817H169.985L167.55 22.7134C167.246 22.7134 166.941 22.7134 166.637 22.7134C165.267 22.7134 164.05 22.7134 162.832 22.7134C162.832 24.0853 162.832 25.4573 162.832 26.9817C161.311 26.8292 159.637 26.8292 157.963 26.8292ZM178.964 26.8292C178.964 21.189 178.964 15.7012 178.964 10.061C181.703 10.061 184.442 10.061 186.877 10.061C189.312 10.061 191.442 10.061 192.964 10.6708C194.638 11.2805 195.856 12.5 196.464 13.872C197.073 15.2439 197.073 16.7683 197.073 18.4451C197.073 19.9695 197.073 21.6463 196.464 23.0183C195.856 24.3902 194.638 25.6097 192.964 26.2195C191.29 26.8292 189.16 26.8292 187.638 26.8292C186.116 26.8292 184.899 26.8292 183.833 26.8292C182.312 26.8292 180.638 26.8292 178.964 26.8292ZM95.2643 26.8292C95.2643 21.189 95.2643 15.7012 95.2643 10.061C98.0035 10.061 100.743 10.061 103.178 10.061C105.613 10.061 107.743 10.061 109.265 10.6708C110.939 11.2805 112.156 12.5 112.765 13.872C113.374 15.2439 113.374 16.7683 113.374 18.4451C113.374 19.9695 113.374 21.6463 112.765 23.0183C112.156 24.3902 110.939 25.6097 109.265 26.2195C107.591 26.8292 105.46 26.8292 103.939 26.8292C102.417 26.8292 101.199 26.8292 100.134 26.8292C98.6123 26.8292 96.9383 26.8292 95.2643 26.8292Z" fill="black"/>
</svg>
